<svg xmlns="http://www.w3.org/2000/svg" xmlns:xlink="http://www.w3.org/1999/xlink" width="36" zoomAndPan="magnify" viewBox="0 0 375 374.999991" height="36" preserveAspectRatio="xMidYMid meet" version="1.0"><defs><g/></defs><path stroke-linecap="butt" transform="matrix(0.817821, -0.0165765, 0.0165765, 0.817821, 244.580321, 85.866323)" fill="none" stroke-linejoin="miter" d="M 0.002304 8.001594 L 67.550361 7.999901 " stroke="#000000" stroke-width="16" stroke-opacity="1" stroke-miterlimit="4"/><path stroke-linecap="butt" transform="matrix(0, 0.817989, -0.817989, 0, 300.365903, 84.991247)" fill="none" stroke-linejoin="miter" d="M 0.0011495 8.002053 L 308.699354 8.002053 " stroke="#000000" stroke-width="16" stroke-opacity="1" stroke-miterlimit="4"/><path stroke-linecap="butt" transform="matrix(0.817989, 0, 0, 0.817989, 99.074223, 324.412157)" fill="none" stroke-linejoin="miter" d="M -0.00000494399 8.001177 L 245.581324 8.001177 " stroke="#000000" stroke-width="16" stroke-opacity="1" stroke-miterlimit="4"/><path stroke-linecap="butt" transform="matrix(0, 0.817989, -0.817989, 0, 111.052586, 172.276995)" fill="none" stroke-linejoin="miter" d="M 0.000426244 8.001054 L 201.986843 8.001054 " stroke="#000000" stroke-width="16" stroke-opacity="1" stroke-miterlimit="4"/><path stroke-linecap="butt" transform="matrix(0.817989, 0, 0, 0.817989, 129.320547, 259.341605)" fill="none" stroke-linejoin="miter" d="M -0.000286933 8.00147 L 167.187562 8.00147 " stroke="#000000" stroke-width="16" stroke-opacity="1" stroke-miterlimit="4"/><path stroke-linecap="butt" transform="matrix(0.817989, 0, 0, 0.817989, 129.320547, 223.638588)" fill="none" stroke-linejoin="miter" d="M -0.000286933 8.001338 L 167.187562 8.001338 " stroke="#000000" stroke-width="16" stroke-opacity="1" stroke-miterlimit="4"/><path stroke-linecap="butt" transform="matrix(0.817989, 0, 0, 0.817989, 129.320547, 187.087063)" fill="none" stroke-linejoin="miter" d="M -0.000286933 8.002247 L 167.187562 8.002247 " stroke="#000000" stroke-width="16" stroke-opacity="1" stroke-miterlimit="4"/><g fill="#000000" fill-opacity="1"><g transform="translate(56.224006, 143.386665)"><g><path d="M 48.34375 -96.96875 C 61.988281 -96.96875 72.472656 -92.753906 79.796875 -84.328125 C 87.117188 -75.898438 90.78125 -63.859375 90.78125 -48.203125 C 90.78125 -32.453125 87.117188 -20.363281 79.796875 -11.9375 C 72.472656 -3.519531 61.988281 0.6875 48.34375 0.6875 C 34.613281 0.6875 24.0625 -3.519531 16.6875 -11.9375 C 9.3125 -20.363281 5.625 -32.453125 5.625 -48.203125 C 5.625 -63.859375 9.3125 -75.898438 16.6875 -84.328125 C 24.0625 -92.753906 34.613281 -96.96875 48.34375 -96.96875 Z M 48.34375 -79.109375 C 42.113281 -79.109375 37.625 -76.703125 34.875 -71.890625 C 32.132812 -67.085938 30.765625 -59.191406 30.765625 -48.203125 C 30.765625 -37.210938 32.132812 -29.289062 34.875 -24.4375 C 37.625 -19.59375 42.113281 -17.171875 48.34375 -17.171875 C 54.382812 -17.171875 58.800781 -19.617188 61.59375 -24.515625 C 64.382812 -29.410156 65.78125 -37.304688 65.78125 -48.203125 C 65.78125 -59.097656 64.382812 -66.972656 61.59375 -71.828125 C 58.800781 -76.679688 54.382812 -79.109375 48.34375 -79.109375 Z M 48.34375 -79.109375 "/></g></g></g><g fill="#000000" fill-opacity="1"><g transform="translate(153.432708, 121.856501)"><g><path d="M 23.28125 0 L 10.078125 0 L 10.078125 -41.375 L 0.515625 -41.375 L 0.515625 -51.984375 L 23.28125 -51.984375 Z M 23.28125 0 "/></g></g></g><g fill="#000000" fill-opacity="1"><g transform="translate(186.209836, 121.856501)"><g><path d="M 26.109375 -52.359375 C 33.472656 -52.359375 39.128906 -50.082031 43.078125 -45.53125 C 47.035156 -40.976562 49.015625 -34.476562 49.015625 -26.03125 C 49.015625 -17.53125 47.035156 -11.003906 43.078125 -6.453125 C 39.128906 -1.898438 33.472656 0.375 26.109375 0.375 C 18.691406 0.375 12.992188 -1.898438 9.015625 -6.453125 C 5.035156 -11.003906 3.046875 -17.53125 3.046875 -26.03125 C 3.046875 -34.476562 5.035156 -40.976562 9.015625 -45.53125 C 12.992188 -50.082031 18.691406 -52.359375 26.109375 -52.359375 Z M 26.109375 -42.71875 C 22.742188 -42.71875 20.316406 -41.414062 18.828125 -38.8125 C 17.347656 -36.21875 16.609375 -31.953125 16.609375 -26.015625 C 16.609375 -20.085938 17.347656 -15.8125 18.828125 -13.1875 C 20.316406 -10.570312 22.742188 -9.265625 26.109375 -9.265625 C 29.367188 -9.265625 31.75 -10.585938 33.25 -13.234375 C 34.757812 -15.878906 35.515625 -20.144531 35.515625 -26.03125 C 35.515625 -31.914062 34.757812 -36.164062 33.25 -38.78125 C 31.75 -41.40625 29.367188 -42.71875 26.109375 -42.71875 Z M 26.109375 -42.71875 "/></g></g></g><path stroke-linecap="butt" transform="matrix(0.00000000142766, 0.817989, -0.817989, 0.00000000142766, 111.050937, 134.289982)" fill="none" stroke-linejoin="miter" d="M -0.00112458 7.999038 L 111.428789 7.999038 " stroke="#000000" stroke-width="16" stroke-opacity="1" stroke-miterlimit="4"/></svg>