<svg width="24" height="24" viewBox="0 0 24 24" fill="none" xmlns="http://www.w3.org/2000/svg">
<path d="M3.46405 20.536C4.93005 22 7.28605 22 12.0001 22C16.7141 22 19.0711 22 20.5351 20.535C21.8061 19.265 21.9751 17.322 21.9971 13.75H18.8401C17.8661 13.75 17.6111 13.766 17.3981 13.864C17.1841 13.963 17.0061 14.146 16.3721 14.884L15.7671 15.591L15.6791 15.693C15.1771 16.28 14.7791 16.745 14.2291 16.998C13.6791 17.251 13.0671 17.251 12.2951 17.25H11.7061C10.9331 17.25 10.3211 17.252 9.77105 16.998C9.22105 16.745 8.82305 16.28 8.32105 15.693L8.23305 15.591L7.62805 14.885C6.99405 14.145 6.81605 13.963 6.60205 13.865C6.38905 13.766 6.13405 13.75 5.16005 13.75H2.00305C2.02605 17.322 2.19305 19.266 3.46405 20.536Z" fill="black"/>
<path d="M20.536 3.464C19.07 2 16.714 2 12 2C7.286 2 4.929 2 3.464 3.464C2 4.93 2 7.286 2 12V12.25H5.295C6.067 12.25 6.679 12.248 7.229 12.502C7.779 12.755 8.177 13.22 8.679 13.807L8.767 13.909L9.372 14.615C10.006 15.355 10.184 15.537 10.398 15.635C10.611 15.734 10.866 15.75 11.84 15.75H12.16C13.134 15.75 13.389 15.734 13.602 15.636C13.816 15.537 13.994 15.354 14.628 14.616L15.233 13.909L15.321 13.807C15.823 13.22 16.221 12.755 16.771 12.502C17.321 12.248 17.933 12.249 18.706 12.25H22V12C22 7.286 22.001 4.929 20.536 3.464Z" fill="black"/>
</svg>
